<svg width="41" height="32" viewBox="0 0 41 32" fill="none" xmlns="http://www.w3.org/2000/svg">
<path d="M19.106 14.4694C19.2685 14.6652 19.4809 14.7735 19.9642 14.7568C20.0058 14.7568 20.1891 14.6027 20.3641 14.4277C20.8057 13.9903 21.2556 13.5612 21.6972 13.1196C22.7762 12.0489 23.8552 10.9741 24.9259 9.89511C25.1467 9.67015 25.3717 9.38686 25.0967 9.07857C24.8092 8.75363 24.4676 8.86611 24.176 9.10774C23.9635 9.28271 23.7719 9.48684 23.5761 9.67848C22.4929 10.7491 21.4014 11.8115 20.3349 12.8946C19.8892 13.3487 19.5434 13.3321 19.1601 12.8238C18.7644 12.2989 18.3269 11.8073 17.9062 11.3032C17.6645 11.0116 17.3521 10.795 17.0188 11.0616C16.673 11.3365 16.8397 11.7073 17.0605 11.9864C17.7312 12.8238 18.4228 13.6404 19.106 14.4652V14.4694Z" fill="#0D99FF" fill-opacity="0.65"/>
<path d="M1.25786 31.4121C1.57031 31.4288 1.88276 31.4371 2.19521 31.4371C8.30258 31.4371 14.4099 31.4371 20.5131 31.4371V31.4496C26.758 31.4496 33.0028 31.4538 39.2477 31.4413C39.6434 31.4413 40.2683 31.6371 40.2767 30.9247C40.2808 30.3165 39.7101 30.3706 39.3393 30.3831C38.3353 30.4248 38.0354 30.1582 38.6603 29.2333C38.9061 28.8709 39.0644 28.4251 39.0435 27.9543C39.031 27.6669 39.0144 27.3045 38.6978 27.2711C37.5854 27.1503 37.7937 26.3421 37.7937 25.638C37.7937 19.2182 37.7937 12.7984 37.7937 6.38277C37.7937 4.82884 37.2938 4.33726 35.7357 4.33726C34.036 4.33726 32.3363 4.35392 30.6365 4.36225C29.0451 4.37058 27.8828 3.29159 26.533 2.70002C26.0748 2.50005 25.8581 1.90014 25.7956 1.37522C25.7206 0.692 25.3374 0.533691 24.7333 0.533691C21.9212 0.546189 19.1134 0.542023 16.3013 0.533691C15.7139 0.533691 15.3431 0.667004 15.214 1.35023C14.9807 2.57503 14.16 3.25826 12.9268 3.42907C12.6144 3.47073 12.2478 3.46239 12.1186 3.79151C11.8603 4.44141 11.3313 4.36642 10.8147 4.36642C8.90665 4.36642 6.99862 4.35392 5.09058 4.37058C3.78662 4.38308 3.25754 4.91633 3.22421 6.19113C3.21588 6.53691 3.22421 6.88685 3.22421 7.23263C3.22421 13.4775 3.22421 19.7223 3.21588 25.9672C3.21588 26.3838 3.41168 26.9962 2.79928 27.1086C1.72445 27.3128 1.89942 27.9835 2.12022 28.6751C2.27436 29.1625 2.78678 29.7082 2.66597 30.0707C2.466 30.6748 1.67862 30.2415 1.1787 30.4415C0.941242 30.5373 0.724609 30.6039 0.724609 30.9122C0.724609 31.2747 0.945408 31.3913 1.25369 31.408L1.25786 31.4121ZM13.9725 4.32059C14.9973 4.05813 15.7639 3.37491 16.1055 2.36257C16.3013 1.77933 16.6429 1.62102 17.1845 1.62102C19.405 1.62519 21.6213 1.62102 23.8418 1.62102C24.3834 1.62102 24.7208 1.77516 24.9208 2.35424C25.2832 3.3999 26.0664 4.0873 27.1413 4.35392C27.6995 4.4914 27.8578 4.82051 27.8578 5.3246C27.8495 8.68657 27.8745 12.0527 27.8203 15.4147C27.7953 17.0477 26.9663 18.3517 25.6415 19.2474C24.1251 20.2764 22.5212 21.1804 20.9547 22.1344C20.5215 22.3969 20.1007 22.3427 19.6841 22.0761C18.3135 21.2013 16.9179 20.3597 15.5639 19.4599C14.0142 18.435 13.181 16.9811 13.1643 15.1022C13.1518 13.54 13.1643 11.9819 13.1643 10.4196H13.156C13.156 8.75739 13.1643 7.09099 13.1518 5.42875C13.1476 4.83718 13.3226 4.48723 13.9725 4.32476V4.32059ZM11.9853 14.4648C11.9562 17.1936 13.0602 19.2724 15.4098 20.693C16.7429 21.497 18.0677 22.3219 19.3675 23.1801C20.0257 23.6175 20.5923 23.6592 21.2797 23.2218C22.7711 22.2761 24.3209 21.422 25.8165 20.4847C27.9161 19.1682 28.9785 17.231 29.016 14.7606C29.0493 12.7484 29.0535 10.7362 29.016 8.72406C28.9993 7.93669 29.2076 7.57841 30.0658 7.62424C31.2406 7.68673 32.4238 7.6659 33.6027 7.63257C34.286 7.61174 34.5109 7.89919 34.5068 8.55742C34.4943 13.6899 34.4859 18.8266 34.5151 23.9591C34.5193 24.8923 34.0777 25.034 33.2944 25.0298C29.0285 25.009 24.7625 25.0215 20.4923 25.0173C16.2596 25.0173 12.027 24.9881 7.79432 25.034C6.79031 25.0465 6.4737 24.7174 6.48203 23.7259C6.52369 18.7308 6.51952 13.7358 6.49036 8.74072C6.4862 7.87003 6.78198 7.57841 7.63185 7.62007C8.74001 7.67423 9.85233 7.66589 10.9605 7.62007C11.7187 7.59091 12.0103 7.84503 11.9937 8.62824C11.952 10.5696 11.9937 12.5151 11.977 14.4565L11.9853 14.4648ZM4.3907 6.74104C4.3907 5.86201 4.61566 5.48707 5.56134 5.5204C7.36522 5.58289 9.1691 5.52873 10.9772 5.5454C11.3521 5.5454 11.9478 5.37876 11.9228 6.02449C11.8978 6.64106 11.3104 6.46192 10.9355 6.46608C9.47739 6.48692 8.01929 6.48692 6.56118 6.47442C5.68632 6.46608 5.31971 6.85352 5.31971 7.74088C5.33638 13.4316 5.34054 19.1266 5.31555 24.8173C5.31138 25.7714 5.67799 26.0963 6.60701 26.088C11.2563 26.0588 15.9097 26.0755 20.5631 26.0755C25.1457 26.0755 29.7283 26.0838 34.311 26.0755C35.5733 26.0755 35.6941 25.9547 35.6941 24.7174C35.6982 19.1307 35.6982 13.54 35.6941 7.95335C35.6941 6.63689 35.5274 6.48275 34.1651 6.47442C32.7779 6.46608 31.3864 6.48275 29.9991 6.46608C29.645 6.46608 29.1326 6.59107 29.0993 6.03282C29.0618 5.44541 29.5825 5.5454 29.9366 5.5454C31.8447 5.53707 33.7569 5.56623 35.6649 5.53707C36.4065 5.52457 36.6189 5.84535 36.6189 6.53691C36.6064 13.0609 36.6023 19.589 36.6273 26.113C36.6273 26.9628 36.269 27.1628 35.4983 27.1586C31.4739 27.1336 27.4454 27.1503 23.4168 27.1461C22.8544 27.1461 22.3587 27.1586 21.9962 27.7585C21.6838 28.271 19.3425 28.2585 19.03 27.746C18.6634 27.142 18.1593 27.1461 17.6011 27.1461C13.6434 27.1461 9.68569 27.1211 5.72798 27.1628C4.76147 27.1753 4.38653 26.9253 4.3907 25.888C4.43236 19.5015 4.42402 13.115 4.39903 6.72854L4.3907 6.74104ZM3.35336 28.5251C3.44085 28.2168 3.73663 28.2751 3.96576 28.2543C4.34487 28.2251 4.72814 28.2043 5.10725 28.2043C8.92331 28.2043 12.7394 28.2043 16.5513 28.2043C17.1012 28.2043 17.5678 28.196 17.9719 28.7875C18.4968 29.5583 22.5795 29.4541 23.1294 28.6876C23.4293 28.271 23.7543 28.2085 24.1792 28.2085C28.2702 28.2085 32.3654 28.2085 36.4564 28.2168C36.6981 28.2168 36.9397 28.2543 37.1813 28.2751C37.8021 28.3293 37.7646 28.6417 37.4688 29.0375C36.8481 29.8707 35.9649 30.0873 34.99 30.0873C30.1324 30.0873 25.2791 30.0873 20.4215 30.0873V30.0957C15.6347 30.0957 10.848 30.0915 6.06126 30.0957C5.11975 30.0957 4.26988 29.9165 3.62832 29.1625C3.47417 28.9834 3.27004 28.7917 3.34503 28.5251H3.35336Z" fill="#0D99FF" fill-opacity="0.65"/>
</svg>
