<svg width="37" height="38" viewBox="0 0 37 38" fill="none" xmlns="http://www.w3.org/2000/svg">
<path d="M31.7805 32.5912C31.2889 31.3831 30.7598 30.1874 30.2807 28.9709C30.0849 28.4794 29.8099 28.0794 29.2767 28.0628C28.7268 28.0503 28.4185 28.5002 28.231 28.9501C27.6769 30.2832 27.177 31.6372 26.6396 32.9745C26.4522 33.4452 26.5771 33.7993 26.9937 34.0243C27.4561 34.2743 27.6728 33.9202 27.8936 33.591C28.7101 32.3704 29.7975 32.3871 30.6723 33.6327C30.8848 33.9327 31.1181 34.1868 31.518 34.0535C31.8721 33.9368 31.9263 33.6202 31.9138 33.1744C31.8888 33.0536 31.868 32.8037 31.7805 32.587V32.5912ZM29.6058 31.4497C29.4892 31.6497 29.1809 31.6497 29.0601 31.508C28.7101 31.0956 28.9476 30.729 29.2142 30.2957C29.4642 30.7123 29.8724 30.9873 29.6058 31.4497Z" fill="#0D99FF" fill-opacity="0.65"/>
<path d="M16.995 8.77861C16.995 6.60395 16.995 4.4293 16.995 2.25464C16.995 1.62974 16.9408 1.04234 16.1243 0.988177C13.833 0.838201 11.8166 1.4881 10.2335 3.18366C9.71279 3.74191 9.1712 4.09602 8.45465 4.32098C5.48012 5.24584 3.9762 8.29952 4.23449 10.8325C4.33031 11.7698 4.122 12.1031 3.36796 12.5238C0.518408 14.1111 -0.381442 18.3646 1.52659 21.0183C1.82654 21.4308 1.88486 21.7432 1.66823 22.2265C0.476753 24.8886 1.35994 27.3882 3.31797 28.6171C3.68041 28.8421 3.80955 29.1046 3.77206 29.5503C3.57209 31.9416 4.71357 33.5788 6.77575 34.612C9.43366 35.9451 12.304 36.2409 15.2203 36.1243C16.8492 36.0576 17.0075 35.7993 17.0075 34.1538C17.0075 28.9046 17.0075 23.6596 17.0075 18.4104C16.9991 18.4104 16.995 18.4104 16.9866 18.4104C16.9866 15.1984 16.9866 11.9906 16.9866 8.77861H16.995ZM15.7702 10.6366C15.7702 13.0904 15.7743 15.54 15.7618 17.9938C15.7618 18.3188 15.8993 18.7687 15.5244 18.927C15.1619 19.077 14.7911 18.8354 14.4954 18.5937C14.0038 18.1896 13.633 17.7147 13.5955 17.0273C13.5705 16.5315 13.458 15.9358 12.8373 16.0025C12.1416 16.0733 12.3415 16.744 12.3832 17.1814C12.529 18.6312 13.3705 19.6019 14.712 20.0602C15.4994 20.3309 15.7827 20.7351 15.7743 21.5599C15.741 25.6009 15.741 29.642 15.7827 33.683C15.791 34.6287 15.4785 34.9911 14.5245 34.9453C11.9333 34.8162 9.35868 34.662 7.02155 33.3539C6.04254 32.804 5.33015 32.0083 5.0552 30.9334C4.89689 30.3169 4.69275 29.6586 5.48429 29.1046C6.12169 28.6546 5.6301 28.1505 5.08019 28.0131C2.91387 27.4548 2.20981 25.8134 2.43895 23.8512C2.56809 22.7389 2.84304 22.5098 3.9262 22.8181C4.3553 22.9389 4.6261 22.7972 4.76774 22.4514C4.94271 22.0265 4.60109 21.8182 4.28864 21.6641C3.08466 21.0767 2.24313 20.2101 1.8182 18.902C1.25162 17.1731 2.4556 14.2444 4.10951 13.4779C4.61359 13.2446 5.00103 13.2612 5.35931 13.7612C5.63426 14.1486 6.00921 14.4694 6.36332 14.7943C6.62577 15.0318 6.96323 15.2526 7.26735 14.911C7.56313 14.5777 7.47564 14.1736 7.14653 13.9028C6.2925 13.1904 5.79674 12.2822 5.51345 11.2116C5.01769 9.33269 6.49247 6.32483 8.27135 5.67077C8.73795 5.49996 8.99207 5.57495 8.99624 6.14569C8.99624 6.79976 9.04207 7.45799 9.09206 8.10788C9.12539 8.52032 9.30451 8.8661 9.7836 8.85776C10.3294 8.84527 10.3169 8.42033 10.3044 8.02873C10.296 7.7871 10.2835 7.54547 10.246 7.30801C9.75445 4.05019 12.3207 2.60459 14.6162 2.24215C15.4452 2.10883 15.8035 2.37546 15.7868 3.28365C15.7368 5.73742 15.7702 8.18704 15.7702 10.6408V10.6366Z" fill="#0D99FF" fill-opacity="0.65"/>
<path d="M33.3011 28.1092C32.8428 28.0967 32.6553 28.48 32.6512 28.8882C32.6345 30.3672 32.6345 31.8419 32.6512 33.3209C32.6553 33.7166 32.8011 34.0999 33.3011 34.0874C33.7718 34.0707 33.9426 33.7291 33.9551 33.3125C33.9718 32.5918 33.9593 31.8669 33.9593 31.1462H33.9676C33.9676 30.4255 33.9676 29.7006 33.9676 28.9799C33.9676 28.5175 33.8052 28.1217 33.3011 28.1092Z" fill="#0D99FF" fill-opacity="0.65"/>
<path d="M14.8832 11.0072C14.3083 10.4948 13.6668 10.1032 12.8544 10.1324C11.4588 10.1157 10.0548 11.3155 9.93403 12.6778C9.89237 13.1152 9.69657 13.7401 10.3923 13.8651C11.1047 13.9901 11.0797 13.4069 11.1547 12.9194C11.3213 11.8155 12.3128 11.1114 13.296 11.4197C13.6084 11.5197 13.8834 11.7613 14.1625 11.9571C14.4916 12.1862 14.8707 12.4029 15.179 12.0571C15.5415 11.6446 15.204 11.2864 14.8916 11.0072H14.8832Z" fill="#0D99FF" fill-opacity="0.65"/>
<path d="M12.1667 22.8684C12.3916 22.4518 12.3167 22.1268 11.9251 21.9019C11.5293 21.6769 11.2793 21.9519 11.0752 22.2476C10.6794 22.8225 10.3795 23.4558 10.292 24.1348C10.217 24.7306 9.99619 24.9305 9.39628 24.9972C8.33812 25.1097 7.30911 26.2803 7.30078 27.2427C7.31328 27.5218 7.31328 27.8134 7.6424 27.9259C7.94652 28.0301 8.17981 27.9092 8.34228 27.6426C8.41311 27.526 8.50059 27.4135 8.55891 27.2885C8.80471 26.7594 9.14632 26.3303 9.78372 26.3303C10.4794 26.3303 10.5003 26.9844 10.7127 27.4177C11.1377 28.2842 11.7792 28.9466 12.5833 29.434C13.0124 29.6965 13.5915 30.0297 13.9414 29.4048C14.2413 28.8633 13.6456 28.6425 13.2915 28.4133C12.125 27.6634 11.5418 26.6428 11.5543 25.2305C11.5626 24.3681 11.7751 23.6016 12.1708 22.8642L12.1667 22.8684Z" fill="#0D99FF" fill-opacity="0.65"/>
<path d="M24.9991 13.8738C25.4948 13.8488 25.6364 13.4905 25.6073 13.0781C25.5156 11.7491 24.545 10.141 22.6828 10.116C21.912 10.0452 21.258 10.4202 20.6581 10.9034C20.304 11.1867 19.9082 11.5658 20.2706 12.0282C20.6081 12.4573 20.9997 12.1282 21.3538 11.8908C22.8786 10.8743 24.0492 11.37 24.3991 13.1989C24.47 13.5738 24.5325 13.8946 24.9949 13.8696L24.9991 13.8738Z" fill="#0D99FF" fill-opacity="0.65"/>
<path d="M22.3404 27.0219C23.0028 27.0844 23.0236 26.3928 23.1153 25.8929C23.1319 25.7929 23.1528 25.6888 23.1486 25.5846C23.082 23.9307 24.9941 21.8727 26.8022 22.1102C27.2355 22.1685 27.7895 22.1768 27.7562 21.4977C27.7271 20.852 27.1855 20.9187 26.7439 20.9062C24.1859 20.8312 21.9863 23.01 21.828 25.8512C21.878 26.2428 21.628 26.9594 22.3404 27.026V27.0219Z" fill="#0D99FF" fill-opacity="0.65"/>
<path d="M35.6931 24.8428C34.6308 24.9386 34.3142 24.4054 34.2392 23.4722C34.2059 23.0722 34.0434 22.6473 33.8267 22.314C33.5018 21.8141 33.6226 21.4725 33.9309 21.0184C35.9222 18.0897 35.0391 14.1653 31.9479 12.4489C31.2022 12.0365 31.0522 11.6282 31.1563 10.8367C31.5354 7.87048 29.6607 5.08758 26.8029 4.27105C26.2613 4.11691 25.7947 3.87111 25.4364 3.40035C24.4491 2.09639 23.0368 1.4465 21.512 1.07155C18.9749 0.446654 18.3792 0.904914 18.3667 3.47117C18.3417 8.47871 18.3584 13.4863 18.3584 18.4938H18.3417C18.3417 20.1852 18.3375 21.8766 18.3417 23.5722C18.3542 27.2299 18.3709 30.8918 18.3959 34.5496C18.3959 35.0287 18.3917 35.5994 18.9166 35.8119C20.1747 36.316 21.4829 36.2618 22.7868 35.9869C23.0785 35.9244 23.2701 35.7119 23.2326 35.3786C23.1951 35.0245 22.9285 34.9412 22.6368 34.937C22.0494 34.9287 21.4579 34.8995 20.8746 34.9495C19.8956 35.037 19.5415 34.6662 19.554 33.6581C19.604 29.6879 19.604 25.7135 19.5623 21.7433C19.554 20.8393 19.829 20.356 20.7038 20.0852C22.1203 19.6436 22.891 18.573 23.1368 17.144C23.2118 16.6982 23.3034 16.0608 22.6035 16.0067C21.9953 15.9567 21.9828 16.5066 21.9161 16.9607C21.7953 17.7981 21.3704 18.4271 20.5997 18.8146C19.9498 19.1437 19.5623 19.0812 19.5665 18.223C19.5832 13.1821 19.5873 8.1371 19.579 3.09623C19.579 2.40468 19.8998 2.19221 20.5413 2.22554C21.8328 2.29219 22.9326 2.80461 23.9283 3.58782C25.3781 4.72931 25.3781 6.29989 25.2156 7.92464C25.1781 8.28291 25.0698 8.75784 25.603 8.84949C26.1363 8.93698 26.3488 8.50371 26.4029 8.08711C26.4862 7.47471 26.4779 6.84981 26.4904 6.22907C26.5029 5.56668 26.7654 5.45419 27.3361 5.74998C29.0983 6.65817 30.2648 9.02863 29.9607 10.9783C29.7816 12.1281 29.29 13.0613 28.4193 13.8154C28.0652 14.1195 27.8944 14.5236 28.2276 14.8985C28.5859 15.3026 28.9192 14.961 29.1983 14.7069C29.5274 14.4028 29.8774 14.1028 30.1273 13.7404C30.4898 13.2113 30.8939 13.2613 31.3813 13.4988C32.9727 14.2861 34.11 16.8982 33.7143 18.6313C33.3851 20.0685 32.5603 21.0184 31.273 21.635C30.9147 21.8058 30.5398 22.0057 30.7772 22.4848C30.9897 22.9181 31.348 22.8764 31.7437 22.6806C32.1937 22.4598 32.5519 22.4682 32.8144 23.0514C33.3768 24.297 33.1435 24.7511 31.7646 24.772C29.5899 24.8095 27.4111 24.8136 25.2364 24.8261C24.4991 24.8303 23.9658 24.9928 23.9741 25.9218C24.0075 29.3754 24.0075 32.829 23.995 36.2826C23.995 36.9034 24.2574 37.1783 24.8532 37.1783C28.4443 37.1783 32.0395 37.1783 35.6306 37.1783C36.1639 37.1783 36.4597 36.9784 36.4597 36.3868C36.4555 32.829 36.4597 29.2713 36.4805 25.7135C36.4805 25.1511 36.193 24.797 35.689 24.8428H35.6931ZM34.46 36.2243C33.0435 36.2077 31.6271 36.2202 30.2148 36.2202C28.8359 36.2202 27.4528 36.1993 26.0738 36.2285C25.4447 36.241 25.2198 35.9952 25.2281 35.3786C25.2531 32.5499 25.2531 29.717 25.2448 26.8883C25.2448 26.2759 25.4947 26.0134 26.1071 26.0218C28.8692 26.0468 31.6313 26.0593 34.3933 26.0593C35.0224 26.0593 35.2515 26.3592 35.2515 26.9466C35.2515 29.7753 35.2598 32.6082 35.2807 35.4369C35.2807 36.016 35.0266 36.2327 34.4641 36.2243H34.46Z" fill="#0D99FF" fill-opacity="0.65"/>
</svg>
