<svg width="37" height="32" viewBox="0 0 37 32" fill="none" xmlns="http://www.w3.org/2000/svg">
<path d="M28.3866 7.60216C28.7865 7.63133 29.2198 7.52301 29.2406 7.06892C29.2698 6.519 28.799 6.46484 28.2699 6.46484C27.9783 6.48984 27.5159 6.50234 27.495 6.98143C27.47 7.53134 27.9741 7.573 28.3866 7.60216Z" fill="#0D99FF" fill-opacity="0.65"/>
<path d="M22.3333 13.8887C22.9207 14.3719 23.5331 14.8218 24.1247 15.2968C24.3371 15.4676 24.5788 15.6217 24.6288 16.0092C24.5038 16.1841 24.3538 16.4174 24.183 16.6257C23.6331 17.2923 23.054 17.9338 22.5291 18.6171C22.2666 18.9587 22.1542 19.4003 22.4999 19.7586C22.8665 20.1377 23.3081 19.9919 23.5998 19.6627C24.5413 18.6046 25.4495 17.5214 26.3493 16.4299C26.7201 15.98 26.6243 15.5009 26.2118 15.1343C25.2537 14.2886 24.283 13.4596 23.2956 12.6514C22.9165 12.3431 22.4458 12.2431 22.1042 12.7055C21.7792 13.1429 21.9459 13.5679 22.3333 13.8887Z" fill="#0D99FF" fill-opacity="0.65"/>
<path d="M17.6797 20.5211C18.2796 20.7544 18.5546 20.2962 18.7337 19.8129C19.3045 18.2548 19.8627 16.6926 20.4335 15.1345C20.7626 14.2263 21.225 13.3639 21.4042 12.4099C21.3875 11.9891 21.2542 11.6184 20.8209 11.5184C20.3252 11.4059 20.0335 11.735 19.8836 12.1516C19.0129 14.5554 18.163 16.9675 17.3006 19.3755C17.1257 19.8629 17.1923 20.3253 17.6839 20.5211H17.6797Z" fill="#0D99FF" fill-opacity="0.65"/>
<path d="M15.0752 19.3796C15.421 19.7754 15.8418 20.067 16.325 19.6504C16.8291 19.213 16.4958 18.7631 16.1959 18.3756C15.8792 17.9673 15.5251 17.5841 15.1919 17.1883C13.7296 15.4761 13.8212 15.8177 15.3085 14.3846C15.6043 14.0971 15.9126 13.8097 16.1584 13.4806C16.3583 13.2139 16.3375 12.8848 16.1334 12.6057C15.9542 12.3557 15.6626 12.2099 15.4085 12.3891C14.2462 13.2056 13.2005 14.1513 12.3548 15.3053C12.2798 15.4053 12.2923 15.5677 12.2715 15.6594C12.3298 16.0218 12.4173 16.3134 12.6339 16.5592C13.4505 17.5008 14.2587 18.4464 15.0794 19.3838L15.0752 19.3796Z" fill="#0D99FF" fill-opacity="0.65"/>
<path d="M21.2466 2.76954C21.5507 2.70288 22.0506 2.86536 22.0923 2.30295C22.1339 1.71554 21.6382 1.66138 21.2257 1.65305C20.8133 1.64888 20.3217 1.69888 20.3342 2.27379C20.3467 2.8362 20.8341 2.72371 21.2466 2.76537V2.76954Z" fill="#0D99FF" fill-opacity="0.65"/>
<path d="M18.8462 2.76962C19.2836 2.75295 19.8127 2.78211 19.7668 2.20304C19.7294 1.70728 19.2169 1.62813 18.8045 1.64896C18.4087 1.66979 17.888 1.72395 17.913 2.27386C17.9421 2.86543 18.4879 2.71962 18.8462 2.76962Z" fill="#0D99FF" fill-opacity="0.65"/>
<path d="M25.1114 7.01059C25.1155 7.52717 25.6113 7.58966 26.1029 7.61882C26.4112 7.53967 26.9027 7.50634 26.8986 7.03975C26.8944 6.49817 26.3945 6.47317 25.9654 6.46484C25.5571 6.45651 25.1072 6.55233 25.1114 7.01059Z" fill="#0D99FF" fill-opacity="0.65"/>
<path d="M36.2344 19.0921C36.2344 17.7089 36.2135 17.6964 34.8471 17.6756C33.5056 17.6548 33.4807 17.6548 33.4723 16.2592C33.4557 12.9639 33.464 9.66855 33.4557 6.36908C33.4515 5.07761 33.3223 4.95263 32.01 4.9443C30.6561 4.93597 29.3021 4.92764 27.9482 4.95263C27.1941 4.96513 26.7567 4.79849 26.8775 3.88614C26.9608 3.2404 26.8484 2.57384 26.8442 1.91561C26.84 0.524168 26.765 0.436682 25.3778 0.432516C21.5242 0.42835 17.6706 0.432516 13.8213 0.432516V0.465844C9.86355 0.465844 5.90585 0.465844 1.95231 0.465844C1.26909 0.465844 0.739999 0.536665 0.744165 1.45735C0.773327 8.01881 0.773328 14.5761 0.764996 21.1376C0.764996 21.9458 1.13994 22.2666 1.91065 22.2541C2.6397 22.2416 3.36875 22.2832 4.0978 22.2457C4.81019 22.2124 5.11015 22.4915 5.08515 23.2122C5.03932 24.5662 5.02682 25.9201 5.01849 27.2699C5.01016 28.5864 5.20596 28.7905 6.51409 28.7947C10.6801 28.7947 14.8419 28.7822 19.0079 28.7822C20.4077 28.7822 20.416 28.7947 20.4369 30.1528C20.4577 31.5068 20.4869 31.5401 21.8658 31.5443C26.2026 31.5484 30.5436 31.5193 34.8804 31.5693C35.9053 31.5817 36.2719 31.3193 36.2552 30.2361C36.1927 26.5242 36.2344 22.8081 36.2302 19.0962L36.2344 19.0921ZM34.3847 18.7629C34.7679 18.7629 35.2179 18.7629 35.2262 19.2795C35.2345 19.8586 34.7221 19.6961 34.3888 19.7461C34.0556 19.7086 33.614 19.8169 33.5931 19.317C33.5723 18.7963 33.9931 18.7588 34.3888 18.7588L34.3847 18.7629ZM31.2893 6.03579C32.0142 6.03579 32.4433 6.11911 32.4308 7.03564C32.4183 7.923 32.0392 8.05214 31.2893 8.04798C23.3073 8.03131 15.3252 8.03548 7.34729 8.04798C6.61407 8.04798 6.2058 7.94799 6.19747 7.04397C6.18497 6.11078 6.63906 6.06079 7.35145 6.06079C11.3758 6.07745 15.4002 6.06912 19.4287 6.06912C19.4287 6.06079 19.4287 6.04829 19.4287 6.03996C23.3864 6.03996 27.34 6.05246 31.2977 6.03163L31.2893 6.03579ZM2.76052 1.41153C6.47243 1.41986 10.1843 1.41569 13.9004 1.41569V1.43652C17.5373 1.43652 21.1743 1.44069 24.8112 1.43236C25.3611 1.43236 25.736 1.50735 25.7569 2.20307C25.7777 2.91129 25.4819 3.08626 24.832 3.0821C17.4748 3.06543 10.1218 3.07376 2.76468 3.07793C2.2231 3.07793 1.819 3.00294 1.8065 2.30722C1.794 1.599 2.13978 1.41153 2.76884 1.41569L2.76052 1.41153ZM4.94767 6.49822C4.94767 10.9017 4.94767 15.3052 4.94767 19.7128C4.94767 20.6404 4.49219 21.107 3.58122 21.1126C3.33959 21.1126 3.0938 21.0959 2.85217 21.1126C2.03563 21.1834 1.75651 20.8085 1.76484 20.0086C1.79817 17.4756 1.77734 14.9469 1.77734 12.4139C1.77734 10.056 1.79817 7.69803 1.77734 5.34007C1.77317 4.64435 2.00647 4.34023 2.73969 4.34023C10.126 4.35689 17.5123 4.34856 24.9028 4.35689C25.1195 4.35689 25.3986 4.26108 25.5569 4.62768C25.207 4.92764 24.782 4.79849 24.4029 4.79849C18.4705 4.80682 12.5423 4.80266 6.6099 4.80682C5.12264 4.80682 4.93934 4.99429 4.93934 6.49822H4.94767ZM19.2079 27.6574V27.674C15.2502 27.674 11.2925 27.6532 7.33895 27.6907C6.51825 27.699 6.16414 27.5116 6.17248 26.6075C6.2183 21.1251 6.2183 15.6384 6.20997 10.156C6.20997 9.42276 6.48909 9.18946 7.19315 9.18946C15.2794 9.20613 23.3697 9.21029 31.456 9.19779C32.1933 9.19779 32.4142 9.49358 32.41 10.1935C32.385 15.7134 32.3725 21.2292 32.3892 26.7492C32.3892 27.5241 32.0642 27.6699 31.3893 27.6699C27.3275 27.649 23.2656 27.6615 19.2079 27.6615V27.6574ZM34.268 30.6486C32.2933 30.6152 30.3145 30.6361 28.3356 30.6361V30.6486C26.4276 30.6486 24.5196 30.6361 22.6115 30.6569C21.9783 30.6611 21.5534 30.5819 21.5534 29.7737C21.5534 28.9488 22.0158 28.9072 22.6282 28.9072C25.7485 28.9197 28.873 28.9238 31.9934 28.9197C33.3015 28.9197 33.5056 28.7197 33.514 27.4116C33.5265 25.6077 33.5306 23.8038 33.5056 21.9999C33.4973 21.3125 33.7139 20.9793 34.4597 20.9959C35.2095 21.0084 35.2804 21.4292 35.2762 22.0124C35.2595 24.5454 35.247 27.0783 35.2762 29.6071C35.2845 30.3694 35.0304 30.6611 34.2597 30.6444L34.268 30.6486Z" fill="#0D99FF" fill-opacity="0.65"/>
<path d="M23.6855 2.75739C23.9646 2.68657 24.4729 2.84904 24.5021 2.2908C24.5312 1.70339 24.0105 1.69089 23.6189 1.6784C23.2148 1.6659 22.7065 1.71173 22.7398 2.28663C22.769 2.81988 23.2564 2.72823 23.6855 2.75739Z" fill="#0D99FF" fill-opacity="0.65"/>
<path d="M13.064 24.3454C15.1054 24.3579 17.1467 24.3496 19.1922 24.3496V24.3662C21.4085 24.3662 23.6248 24.3662 25.837 24.3662C26.2369 24.3662 26.6535 24.2996 26.6369 23.7788C26.6244 23.3331 26.2328 23.2706 25.8786 23.2372C25.6037 23.2122 25.3246 23.1997 25.0496 23.2039C21.0336 23.2206 17.0217 23.2372 13.0057 23.2664C12.5766 23.2664 11.9475 23.1706 11.9434 23.7872C11.9434 24.4912 12.6099 24.3412 13.064 24.3454Z" fill="#0D99FF" fill-opacity="0.65"/>
<path d="M30.7384 7.61883C31.1467 7.58967 31.6133 7.56884 31.6216 7.01476C31.6258 6.51484 31.205 6.46484 30.8134 6.46484C30.3968 6.46484 29.9219 6.46484 29.9219 7.03559C29.9219 7.52301 30.3426 7.58133 30.7426 7.61883H30.7384Z" fill="#0D99FF" fill-opacity="0.65"/>
<path d="M26.6321 25.558C26.6362 25.0248 26.1571 25.0581 25.7864 25.0039C25.7197 24.9956 25.6489 24.9956 25.5781 24.9956C21.3454 25.0039 17.1127 25.0123 12.8801 25.0289C12.4843 25.0289 11.9261 24.9664 11.9219 25.5497C11.9177 26.1538 12.4718 26.0579 12.8717 26.0621C14.9881 26.0704 17.1044 26.0621 19.2207 26.0621C19.6373 26.0621 20.0539 26.0621 20.4705 26.0621C22.2411 26.0621 24.0075 26.0663 25.778 26.0621C26.153 26.0621 26.6279 26.1038 26.6321 25.558Z" fill="#0D99FF" fill-opacity="0.65"/>
<path d="M23.6204 1.67862C24.012 1.69111 24.5328 1.70361 24.5036 2.29102C24.4744 2.84926 23.9662 2.68679 23.6871 2.75761C23.258 2.72845 22.7747 2.8201 22.7414 2.28685C22.708 1.70778 23.2163 1.66612 23.6204 1.67862ZM21.225 1.65779C21.6374 1.66195 22.129 1.72028 22.0915 2.30768C22.054 2.87009 21.5499 2.70762 21.2458 2.77428C20.8333 2.73262 20.3459 2.84093 20.3334 2.28269C20.3209 1.70778 20.8167 1.65779 21.225 1.66195V1.65779ZM18.8045 1.64945C19.2169 1.62446 19.7294 1.70778 19.7668 2.20353C19.8127 2.78261 19.2878 2.75345 18.8462 2.77011C18.4879 2.71595 17.938 2.86593 17.913 2.27435C17.888 1.72444 18.4087 1.67445 18.8045 1.64945Z" fill="#0D99FF" fill-opacity="0.65"/>
</svg>
