<svg width="269" height="267" viewBox="0 0 269 267" fill="none" xmlns="http://www.w3.org/2000/svg">
<g filter="url(#filter0_g_4613_983)">
<circle cx="135.5" cy="133.5" r="117.5" fill="#0D99FF" fill-opacity="0.43"/>
</g>
<g filter="url(#filter1_d_4613_983)">
<path d="M256.801 101.128C259.86 98.9182 259.5 96.4788 257.004 94.2695C254.71 92.2443 254.642 90.5643 256.936 88.6311C259.747 86.2838 259.567 84.0054 256.734 81.7731C254.822 80.2772 254.687 78.4361 256.576 76.8942C259.837 74.2016 259.837 71.8772 256.396 69.2997C254.53 67.9189 254.395 65.5945 256.149 64.2597C258.263 62.6488 259.545 60.8537 258.398 58.5063C257.251 56.1819 254.642 57.2405 252.686 57.2405C213.331 57.1715 173.998 57.1945 134.643 57.1945V57.1485C94.7712 57.1485 54.899 57.1485 15.0492 57.1945C13.4525 57.1945 11.2487 56.343 10.5065 58.6444C9.92183 60.5545 10.1692 62.2805 12.2381 63.6844C14.8243 65.4334 14.7794 67.6427 12.1257 69.6909C9.20219 71.9232 9.3821 74.3857 12.1257 76.595C14.2846 78.321 14.532 79.909 12.3506 81.7731C9.49454 84.2125 9.26966 86.5599 12.4405 88.9994C14.6894 90.7484 14.2396 92.4054 12.1932 94.1774C9.44957 96.5709 9.26966 99.0333 12.4855 101.381C14.9818 103.199 14.442 105.017 12.463 107.065C8.86486 110.77 9.60699 113.302 14.5095 114.475C23.5499 116.662 29.4194 123.957 29.4869 133.117C29.5543 142.092 23.4824 149.824 14.6444 151.942C9.74192 153.115 8.84237 155.716 12.3281 159.352C14.5545 161.653 14.6669 163.448 12.2606 165.566C9.51703 167.982 9.33712 170.445 12.3506 172.861C14.2846 174.403 14.4645 175.945 12.4181 177.625C9.51703 179.972 9.40459 182.504 12.3056 184.943C14.1497 186.508 14.6669 188.027 12.553 189.707C9.04477 192.469 9.31463 195 12.7104 197.693C14.5545 199.143 14.7569 201.444 12.8453 202.664C10.2142 204.344 9.65196 206.576 10.6639 208.992C11.6085 211.271 14.2396 210.649 16.2186 210.926C17.2531 211.064 18.3101 210.972 19.3445 210.949C96.1205 210.949 172.896 210.926 249.672 210.903C251.247 210.903 252.843 211.041 254.35 210.718C255.902 210.373 258.173 210.88 258.51 208.417C258.78 206.53 259.005 204.643 256.869 203.262C254.148 201.513 254.283 199.327 256.756 197.232C259.635 194.816 259.567 192.354 256.756 189.96C254.89 188.372 254.575 186.761 256.599 185.15C259.612 182.734 259.545 180.225 256.824 177.763C254.71 175.853 254.867 174.38 257.004 172.585C259.612 170.353 259.657 167.913 256.846 165.658C254.08 163.425 254.53 161.492 257.026 159.145C260.13 156.222 259.185 153.138 255.16 152.126C245.49 149.686 239.665 142.644 239.688 133.393C239.688 123.842 245.265 116.915 254.89 114.429C259.387 113.256 260.175 110.563 256.734 107.18C254.44 104.948 254.08 103.107 256.801 101.151V101.128Z" fill="white"/>
</g>
<path d="M105.304 161.344C104.56 161.344 103.884 161.18 103.276 160.852C102.676 160.524 102.196 160.052 101.836 159.436C101.484 158.812 101.308 158.076 101.308 157.228V155.44C101.308 154.6 101.484 153.872 101.836 153.256C102.196 152.632 102.68 152.156 103.288 151.828C103.896 151.5 104.568 151.336 105.304 151.336C106.248 151.336 107.044 151.6 107.692 152.128C108.34 152.648 108.784 153.372 109.024 154.3L108.196 154.528C107.988 153.744 107.64 153.152 107.152 152.752C106.672 152.344 106.056 152.14 105.304 152.14C104.712 152.14 104.18 152.272 103.708 152.536C103.236 152.792 102.864 153.176 102.592 153.688C102.32 154.192 102.184 154.808 102.184 155.536V157.144C102.184 157.872 102.32 158.492 102.592 159.004C102.864 159.508 103.236 159.888 103.708 160.144C104.18 160.408 104.712 160.54 105.304 160.54C106.064 160.54 106.684 160.34 107.164 159.94C107.644 159.54 107.988 158.948 108.196 158.164L109.024 158.392C108.792 159.32 108.348 160.044 107.692 160.564C107.044 161.084 106.248 161.344 105.304 161.344ZM116.956 161.344C116.212 161.344 115.536 161.18 114.928 160.852C114.32 160.524 113.836 160.052 113.476 159.436C113.124 158.812 112.948 158.08 112.948 157.24V155.44C112.948 154.6 113.124 153.872 113.476 153.256C113.836 152.632 114.32 152.156 114.928 151.828C115.536 151.5 116.212 151.336 116.956 151.336C117.7 151.336 118.376 151.5 118.984 151.828C119.592 152.156 120.072 152.632 120.424 153.256C120.784 153.872 120.964 154.6 120.964 155.44V157.24C120.964 158.08 120.784 158.812 120.424 159.436C120.072 160.052 119.592 160.524 118.984 160.852C118.376 161.18 117.7 161.344 116.956 161.344ZM116.956 160.54C117.548 160.54 118.08 160.408 118.552 160.144C119.032 159.888 119.408 159.508 119.68 159.004C119.96 158.492 120.1 157.872 120.1 157.144V155.536C120.1 154.808 119.96 154.192 119.68 153.688C119.408 153.176 119.032 152.792 118.552 152.536C118.08 152.272 117.548 152.14 116.956 152.14C116.364 152.14 115.832 152.272 115.36 152.536C114.888 152.792 114.512 153.176 114.232 153.688C113.96 154.192 113.824 154.808 113.824 155.536V157.144C113.824 157.872 113.96 158.492 114.232 159.004C114.512 159.508 114.888 159.888 115.36 160.144C115.832 160.408 116.364 160.54 116.956 160.54ZM128.899 161.344C128.187 161.344 127.551 161.196 126.991 160.9C126.439 160.612 126.003 160.176 125.683 159.592C125.363 159.008 125.203 158.296 125.203 157.456V151.516H126.079V157.348C126.079 158.428 126.331 159.232 126.835 159.76C127.339 160.28 128.027 160.54 128.899 160.54C129.771 160.54 130.459 160.28 130.963 159.76C131.467 159.232 131.719 158.428 131.719 157.348V151.516H132.583V157.456C132.583 158.296 132.423 159.008 132.103 159.592C131.783 160.176 131.343 160.612 130.783 160.9C130.231 161.196 129.603 161.344 128.899 161.344ZM140.618 151.516C141.746 151.516 142.598 151.768 143.174 152.272C143.758 152.776 144.05 153.48 144.05 154.384C144.05 155.304 143.758 156.016 143.174 156.52C142.598 157.024 141.746 157.276 140.618 157.276H137.99V161.164H137.114V151.516H140.618ZM140.558 156.496C141.438 156.496 142.094 156.324 142.526 155.98C142.966 155.628 143.186 155.096 143.186 154.384C143.186 153.68 142.966 153.156 142.526 152.812C142.094 152.468 141.438 152.296 140.558 152.296H137.99V156.496H140.558ZM151.818 161.344C151.074 161.344 150.398 161.18 149.79 160.852C149.182 160.524 148.698 160.052 148.338 159.436C147.986 158.812 147.81 158.08 147.81 157.24V155.44C147.81 154.6 147.986 153.872 148.338 153.256C148.698 152.632 149.182 152.156 149.79 151.828C150.398 151.5 151.074 151.336 151.818 151.336C152.562 151.336 153.238 151.5 153.846 151.828C154.454 152.156 154.934 152.632 155.286 153.256C155.646 153.872 155.826 154.6 155.826 155.44V157.24C155.826 158.08 155.646 158.812 155.286 159.436C154.934 160.052 154.454 160.524 153.846 160.852C153.238 161.18 152.562 161.344 151.818 161.344ZM151.818 160.54C152.41 160.54 152.942 160.408 153.414 160.144C153.894 159.888 154.27 159.508 154.542 159.004C154.822 158.492 154.962 157.872 154.962 157.144V155.536C154.962 154.808 154.822 154.192 154.542 153.688C154.27 153.176 153.894 152.792 153.414 152.536C152.942 152.272 152.41 152.14 151.818 152.14C151.226 152.14 150.694 152.272 150.222 152.536C149.75 152.792 149.374 153.176 149.094 153.688C148.822 154.192 148.686 154.808 148.686 155.536V157.144C148.686 157.872 148.822 158.492 149.094 159.004C149.374 159.508 149.75 159.888 150.222 160.144C150.694 160.408 151.226 160.54 151.818 160.54ZM160.989 161.164H160.125V151.516H160.953L166.557 159.64V151.516H167.421V161.164H166.605L160.989 153.028V161.164Z" fill="black" fill-opacity="0.5"/>
<defs>
<filter id="filter0_g_4613_983" x="2.8" y="0.8" width="265.4" height="265.4" filterUnits="userSpaceOnUse" color-interpolation-filters="sRGB">
<feFlood flood-opacity="0" result="BackgroundImageFix"/>
<feBlend mode="normal" in="SourceGraphic" in2="BackgroundImageFix" result="shape"/>
<feTurbulence type="fractalNoise" baseFrequency="1.6666666269302368 1.6666666269302368" numOctaves="3" seed="2024" />
<feDisplacementMap in="shape" scale="30.399999618530273" xChannelSelector="R" yChannelSelector="G" result="displacedImage" width="100%" height="100%" />
<feMerge result="effect1_texture_4613_983">
<feMergeNode in="displacedImage"/>
</feMerge>
</filter>
<filter id="filter1_d_4613_983" x="0.4" y="49.4" width="268.2" height="173.2" filterUnits="userSpaceOnUse" color-interpolation-filters="sRGB">
<feFlood flood-opacity="0" result="BackgroundImageFix"/>
<feColorMatrix in="SourceAlpha" type="matrix" values="0 0 0 0 0 0 0 0 0 0 0 0 0 0 0 0 0 0 127 0" result="hardAlpha"/>
<feOffset dy="2"/>
<feGaussianBlur stdDeviation="4.8"/>
<feComposite in2="hardAlpha" operator="out"/>
<feColorMatrix type="matrix" values="0 0 0 0 0 0 0 0 0 0 0 0 0 0 0 0 0 0 0.25 0"/>
<feBlend mode="normal" in2="BackgroundImageFix" result="effect1_dropShadow_4613_983"/>
<feBlend mode="normal" in="SourceGraphic" in2="effect1_dropShadow_4613_983" result="shape"/>
</filter>
</defs>
</svg>
