<svg width="16" height="20" viewBox="0 0 16 20" fill="none" xmlns="http://www.w3.org/2000/svg">
<path d="M8 3.36451V0.999512M8 3.36451C9.38493 3.41821 10.6947 4.00827 11.6526 5.00998C12.6104 6.01169 13.1413 7.34657 13.133 8.73251V10.5325C13.133 12.9185 15 13.5145 15 14.7075C15 15.3005 15 15.9995 14.462 15.9995H1.538C1 15.9995 1 15.3005 1 14.7075C1 13.5145 2.867 12.9185 2.867 10.5325V8.73251C2.85869 7.34657 3.38956 6.01169 4.34742 5.00998C5.30528 4.00827 6.61507 3.41821 8 3.36451ZM4.733 15.9995C4.827 16.8515 5.039 17.5395 5.677 18.1115C6.3154 18.6838 7.14261 19.0004 8 19.0004C8.85739 19.0004 9.6846 18.6838 10.323 18.1115C10.961 17.5395 11.559 16.8515 11.653 15.9995H4.733Z" stroke="#0D99FF" stroke-width="1.7" stroke-linecap="round" stroke-linejoin="round"/>
</svg>
