<svg width="59" height="8" viewBox="0 0 59 8" fill="none" xmlns="http://www.w3.org/2000/svg">
<path d="M58.3536 4.35355C58.5488 4.15829 58.5488 3.84171 58.3536 3.64645L55.1716 0.464466C54.9763 0.269204 54.6597 0.269204 54.4645 0.464466C54.2692 0.659728 54.2692 0.976311 54.4645 1.17157L57.2929 4L54.4645 6.82843C54.2692 7.02369 54.2692 7.34027 54.4645 7.53553C54.6597 7.7308 54.9763 7.7308 55.1716 7.53553L58.3536 4.35355ZM4 4V4.5H4.96429V4V3.5H4V4ZM6.89286 4V4.5H8.82143V4V3.5H6.89286V4ZM10.75 4V4.5H12.6786V4V3.5H10.75V4ZM14.6071 4V4.5H16.5357V4V3.5H14.6071V4ZM18.4643 4V4.5H20.3929V4V3.5H18.4643V4ZM22.3214 4V4.5H24.25V4V3.5H22.3214V4ZM26.1786 4V4.5H28.1071V4V3.5H26.1786V4ZM30.0357 4V4.5H31.9643V4V3.5H30.0357V4ZM33.8929 4V4.5H35.8214V4V3.5H33.8929V4ZM37.75 4V4.5H39.6786V4V3.5H37.75V4ZM41.6071 4V4.5H43.5357V4V3.5H41.6071V4ZM45.4643 4V4.5H47.3929V4V3.5H45.4643V4ZM49.3214 4V4.5H51.25V4V3.5H49.3214V4ZM53.1786 4V4.5H55.1071V4V3.5H53.1786V4ZM57.0357 4V4.5H58V4V3.5H57.0357V4Z" fill="#0D99FF"/>
<circle cx="2.5" cy="3.5" r="2.5" fill="#0D99FF"/>
<circle cx="2.5" cy="3.5" r="1.5" fill="white"/>
</svg>
