<svg viewBox="0 0 16 16" fill="none" xmlns="http://www.w3.org/2000/svg">
<path d="M11.2919 5.625L7.0697 10.375L4.95833 8M1 12.5918V3.40849C1 2.52174 1 2.07803 1.17257 1.73934C1.32437 1.44142 1.56642 1.19937 1.86434 1.04757C2.20303 0.875 2.64674 0.875 3.53349 0.875H12.7168C13.6036 0.875 14.0463 0.875 14.385 1.04757C14.6829 1.19937 14.9258 1.44142 15.0776 1.73934C15.25 2.0777 15.25 2.52087 15.25 3.40589V12.5945C15.25 13.4795 15.25 13.922 15.0776 14.2604C14.9258 14.5583 14.6829 14.8008 14.385 14.9526C14.0467 15.125 13.6041 15.125 12.7191 15.125H3.53089C2.64587 15.125 2.2027 15.125 1.86434 14.9526C1.56642 14.8008 1.32437 14.5583 1.17257 14.2604C1 13.9217 1 13.4786 1 12.5918Z" stroke="current" stroke-width="1.5" stroke-linecap="round" stroke-linejoin="round"/>
</svg>
