<svg width="20" height="20" viewBox="0 0 20 20" fill="none" xmlns="http://www.w3.org/2000/svg">
<path d="M6.66663 16.6666V3.33325H15V7.49992H15.8333C16.5277 7.49992 17.118 7.74297 17.6041 8.22909C18.0902 8.7152 18.3333 9.30547 18.3333 9.99992V16.6666H6.66663ZM3.74996 17.4999C4.33329 17.4999 4.82635 17.2985 5.22913 16.8958C5.6319 16.493 5.83329 15.9999 5.83329 15.4166V8.74992C5.83329 8.16659 5.6319 7.67353 5.22913 7.27075C4.82635 6.86797 4.33329 6.66659 3.74996 6.66659C3.16663 6.66659 2.67357 6.86797 2.27079 7.27075C1.86801 7.67353 1.66663 8.16659 1.66663 8.74992V15.4166C1.66663 15.9999 1.86801 16.493 2.27079 16.8958C2.67357 17.2985 3.16663 17.4999 3.74996 17.4999ZM8.33329 7.49992H13.3333V4.99992H8.33329V7.49992ZM13.3333 11.6666C13.5694 11.6666 13.7675 11.5866 13.9275 11.4266C14.0875 11.2666 14.1672 11.0688 14.1666 10.8333C14.1661 10.5977 14.0861 10.3999 13.9266 10.2399C13.7672 10.0799 13.5694 9.99992 13.3333 9.99992C13.0972 9.99992 12.8994 10.0799 12.74 10.2399C12.5805 10.3999 12.5005 10.5977 12.5 10.8333C12.4994 11.0688 12.5794 11.2669 12.74 11.4274C12.9005 11.588 13.0983 11.6677 13.3333 11.6666ZM15.8333 11.6666C16.0694 11.6666 16.2675 11.5866 16.4275 11.4266C16.5875 11.2666 16.6672 11.0688 16.6666 10.8333C16.6661 10.5977 16.5861 10.3999 16.4266 10.2399C16.2672 10.0799 16.0694 9.99992 15.8333 9.99992C15.5972 9.99992 15.3994 10.0799 15.24 10.2399C15.0805 10.3999 15.0005 10.5977 15 10.8333C14.9994 11.0688 15.0794 11.2669 15.24 11.4274C15.4005 11.588 15.5983 11.6677 15.8333 11.6666ZM13.3333 14.1666C13.5694 14.1666 13.7675 14.0866 13.9275 13.9266C14.0875 13.7666 14.1672 13.5688 14.1666 13.3333C14.1661 13.0977 14.0861 12.8999 13.9266 12.7399C13.7672 12.5799 13.5694 12.4999 13.3333 12.4999C13.0972 12.4999 12.8994 12.5799 12.74 12.7399C12.5805 12.8999 12.5005 13.0977 12.5 13.3333C12.4994 13.5688 12.5794 13.7669 12.74 13.9274C12.9005 14.088 13.0983 14.1677 13.3333 14.1666ZM15.8333 14.1666C16.0694 14.1666 16.2675 14.0866 16.4275 13.9266C16.5875 13.7666 16.6672 13.5688 16.6666 13.3333C16.6661 13.0977 16.5861 12.8999 16.4266 12.7399C16.2672 12.5799 16.0694 12.4999 15.8333 12.4999C15.5972 12.4999 15.3994 12.5799 15.24 12.7399C15.0805 12.8999 15.0005 13.0977 15 13.3333C14.9994 13.5688 15.0794 13.7669 15.24 13.9274C15.4005 14.088 15.5983 14.1677 15.8333 14.1666ZM8.33329 14.1666H11.6666V9.99992H8.33329V14.1666Z" fill="#0D99FF"/>
</svg>
