<svg width="20" height="20" viewBox="0 0 20 20" fill="none" xmlns="http://www.w3.org/2000/svg">
<path d="M10 1.66675C6.50004 1.66675 3.33337 4.35008 3.33337 8.50008C3.33337 11.1501 5.37504 14.2667 9.45004 17.8584C9.76671 18.1334 10.2417 18.1334 10.5584 17.8584C14.625 14.2667 16.6667 11.1501 16.6667 8.50008C16.6667 4.35008 13.5 1.66675 10 1.66675ZM10 10.0001C9.08337 10.0001 8.33337 9.25008 8.33337 8.33342C8.33337 7.41675 9.08337 6.66675 10 6.66675C10.9167 6.66675 11.6667 7.41675 11.6667 8.33342C11.6667 9.25008 10.9167 10.0001 10 10.0001Z" fill="#0D99FF"/>
</svg>
