<svg width="26" height="26" viewBox="0 0 26 26" fill="none" xmlns="http://www.w3.org/2000/svg">
<mask id="mask0_3624_1841" style="mask-type:alpha" maskUnits="userSpaceOnUse" x="0" y="0" width="26" height="26">
<rect width="26" height="26" fill="#D9D9D9"/>
</mask>
<g mask="url(#mask0_3624_1841)">
<path d="M8.96466 12.6749L4.33341 8.04367V11.9166H2.16675V4.33325H9.75008V6.49992H5.85008L10.5084 11.1312L8.96466 12.6749ZM4.33341 21.6666C3.73758 21.6666 3.22751 21.4544 2.80321 21.0301C2.3789 20.6058 2.16675 20.0958 2.16675 19.4999V14.0833H4.33341V19.4999H13.0001V21.6666H4.33341ZM21.6667 14.0833V6.49992H11.9167V4.33325H21.6667C22.2626 4.33325 22.7726 4.5454 23.197 4.96971C23.6213 5.39402 23.8334 5.90409 23.8334 6.49992V14.0833H21.6667ZM23.8334 16.2499V21.6666H15.1667V16.2499H23.8334Z" fill="#C2C2C2"/>
</g>
</svg>
