<svg width="20" height="20" viewBox="0 0 20 20" fill="none" xmlns="http://www.w3.org/2000/svg">
<path d="M9.94338 7.48334L8.56505 8.72001C8.74725 9.34365 9.00175 9.94383 9.32338 10.5083C9.65886 11.0687 10.0631 11.585 10.5267 12.045L12.3117 11.495C13.3117 11.1867 14.4034 11.5033 15.0684 12.295L16.085 13.505C16.4967 13.9908 16.703 14.6177 16.6604 15.2529C16.6178 15.8882 16.3295 16.4819 15.8567 16.9083C14.1984 18.4217 11.645 18.9333 9.73338 17.4317C8.05249 16.1096 6.63078 14.4878 5.54005 12.6483C4.44654 10.8179 3.71442 8.79467 3.38338 6.68834C3.01671 4.31834 4.75171 2.42168 6.91505 1.77501C8.20505 1.38835 9.58171 2.05168 10.055 3.28835L10.6134 4.74668C10.98 5.70668 10.7167 6.79001 9.94338 7.48334Z" fill="#0D99FF"/>
</svg>
