<svg width="17" height="20" viewBox="0 0 17 20" fill="none" xmlns="http://www.w3.org/2000/svg">
<path d="M6.75 2.625C6.50208 2.625 6.29442 2.541 6.127 2.373C5.95958 2.205 5.87558 1.99733 5.875 1.75C5.87442 1.50267 5.95842 1.295 6.127 1.127C6.29558 0.959 6.50325 0.875 6.75 0.875H10.25C10.4979 0.875 10.7059 0.959 10.8739 1.127C11.0419 1.295 11.1256 1.50267 11.125 1.75C11.1244 1.99733 11.0404 2.20529 10.873 2.37387C10.7056 2.54246 10.4979 2.62617 10.25 2.625H6.75ZM8.5 12.25C8.74792 12.25 8.95588 12.166 9.12388 11.998C9.29187 11.83 9.37558 11.6223 9.375 11.375V7.875C9.375 7.62708 9.291 7.41942 9.123 7.252C8.955 7.08458 8.74733 7.00058 8.5 7C8.25267 6.99942 8.045 7.08342 7.877 7.252C7.709 7.42058 7.625 7.62825 7.625 7.875V11.375C7.625 11.6229 7.709 11.8309 7.877 11.9989C8.045 12.1669 8.25267 12.2506 8.5 12.25ZM8.5 19.25C7.42083 19.25 6.4035 19.0423 5.448 18.627C4.4925 18.2117 3.65775 17.6464 2.94375 16.9312C2.22975 16.2161 1.66479 15.381 1.24888 14.4261C0.832958 13.4712 0.625 12.4542 0.625 11.375C0.625 10.2958 0.832958 9.2785 1.24888 8.323C1.66479 7.3675 2.22975 6.53275 2.94375 5.81875C3.65775 5.10475 4.49279 4.53979 5.44887 4.12387C6.40496 3.70796 7.422 3.5 8.5 3.5C9.40417 3.5 10.2719 3.64583 11.1031 3.9375C11.9344 4.22917 12.7146 4.65208 13.4437 5.20625L14.0563 4.59375C14.2167 4.43333 14.4208 4.35312 14.6687 4.35312C14.9167 4.35312 15.1208 4.43333 15.2812 4.59375C15.4417 4.75417 15.5219 4.95833 15.5219 5.20625C15.5219 5.45417 15.4417 5.65833 15.2812 5.81875L14.6687 6.43125C15.2229 7.16042 15.6458 7.94062 15.9375 8.77187C16.2292 9.60312 16.375 10.4708 16.375 11.375C16.375 12.4542 16.167 13.4715 15.7511 14.427C15.3352 15.3825 14.7703 16.2172 14.0563 16.9312C13.3423 17.6452 12.5072 18.2105 11.5511 18.627C10.595 19.0435 9.578 19.2512 8.5 19.25ZM8.5 17.5C10.1917 17.5 11.6354 16.9021 12.8313 15.7062C14.0271 14.5104 14.625 13.0667 14.625 11.375C14.625 9.68333 14.0271 8.23958 12.8313 7.04375C11.6354 5.84792 10.1917 5.25 8.5 5.25C6.80833 5.25 5.36458 5.84792 4.16875 7.04375C2.97292 8.23958 2.375 9.68333 2.375 11.375C2.375 13.0667 2.97292 14.5104 4.16875 15.7062C5.36458 16.9021 6.80833 17.5 8.5 17.5Z" fill="#0D99FF"/>
</svg>
