<svg width="20" height="20" viewBox="0 0 20 20" fill="none" xmlns="http://www.w3.org/2000/svg">
<path d="M9.99997 1.38892C5.09997 1.38892 1.11108 4.8778 1.11108 9.16669C1.11108 13.4556 5.09997 16.9445 9.99997 16.9445C10.9167 16.9434 11.829 16.8163 12.7111 16.5667L15.7833 18.5222C15.9071 18.6016 16.0574 18.6286 16.2011 18.5974C16.3448 18.5661 16.4703 18.4792 16.55 18.3556C16.6176 18.2693 16.6582 18.1649 16.6666 18.0556V14.3167C17.3618 13.6498 17.9165 12.8507 18.2981 11.9662C18.6798 11.0818 18.8806 10.1299 18.8889 9.16669C18.8889 4.8778 14.9 1.38892 9.99997 1.38892ZM16.5778 10H11.95C11.9188 10.0003 11.888 10.0068 11.8593 10.0193C11.8307 10.0317 11.8048 10.0497 11.7833 10.0722L8.83886 13.2056C8.81837 13.228 8.7935 13.246 8.76579 13.2584C8.73808 13.2708 8.70812 13.2774 8.67775 13.2778H7.32775C7.28977 13.2775 7.25246 13.2677 7.21922 13.2494C7.18598 13.231 7.15787 13.2046 7.13744 13.1725C7.11701 13.1405 7.10491 13.1039 7.10225 13.066C7.09959 13.0281 7.10644 12.9901 7.1222 12.9556L8.49442 10H4.14442C4.10326 9.99911 4.06308 9.98732 4.02796 9.96585C3.99283 9.94438 3.96401 9.91401 3.94442 9.8778L2.44442 7.10003H3.46664C3.50773 7.10065 3.54824 7.10987 3.58556 7.12709C3.62287 7.14432 3.65617 7.16916 3.68331 7.20003L4.54997 8.13892C4.57177 8.16596 4.59991 8.18721 4.63189 8.20078C4.66387 8.21435 4.69871 8.21981 4.73331 8.21669L8.16664 8.00558L7.05553 6.03336H8.66108C8.72398 6.03232 8.78513 6.05402 8.83331 6.09447L10.9055 7.7778L14.6222 7.58336C14.8048 7.57081 14.988 7.59535 15.1608 7.6555C15.3336 7.71565 15.4924 7.81017 15.6278 7.93336L17 9.17225C17.0607 9.24899 17.0981 9.34156 17.1078 9.43894C17.1174 9.53632 17.0989 9.63443 17.0544 9.7216C17.01 9.80877 16.9414 9.88135 16.8569 9.9307C16.7724 9.98006 16.6755 10.0041 16.5778 10Z" fill="#0D99FF"/>
</svg>
