<svg width="15" height="14" viewBox="0 0 15 14" fill="none" xmlns="http://www.w3.org/2000/svg">
<path d="M9.78061 4.30963C9.73656 4.21968 9.69406 4.12929 9.65135 4.03868C9.36522 3.42997 9.07933 2.82104 8.79298 2.21255C8.6517 1.91243 8.50931 1.61297 8.3678 1.31285C8.19471 0.94571 8.02428 0.577458 7.84874 0.211654C7.77932 0.0669358 7.65673 -0.0103215 7.49676 -0.00898565C7.33679 -0.00764979 7.21887 0.0729472 7.14767 0.216998C7.09828 0.316519 7.052 0.4176 7.00483 0.518234C6.7621 1.03477 6.51981 1.55152 6.27685 2.06806C6.13646 2.36662 5.99518 2.66452 5.85434 2.96286C5.64075 3.41527 5.42827 3.86813 5.21357 4.3201C5.15773 4.43765 5.05938 4.50667 4.93279 4.52382C4.70184 4.55499 4.46979 4.57859 4.23818 4.6053C3.96429 4.63692 3.69041 4.66853 3.41652 4.70037C3.11683 4.73533 2.81736 4.7705 2.51766 4.80524C2.24378 4.83708 1.9699 4.86869 1.69601 4.90008C1.41656 4.93214 1.13689 4.96287 0.85767 4.9956C0.675674 5.01675 0.493232 5.03567 0.312348 5.06395C0.0346814 5.10759 -0.0930276 5.43309 0.0760644 5.65618C0.123455 5.71897 0.186197 5.76594 0.243377 5.81804C0.493455 6.0467 0.74598 6.27246 0.997171 6.5C1.17961 6.66542 1.36072 6.83218 1.54338 6.99761C1.79457 7.22493 2.04688 7.45136 2.29807 7.67845C2.47383 7.83742 2.64871 7.9975 2.82426 8.15669C3.05053 8.36197 3.2768 8.56747 3.50374 8.77163C3.61743 8.87383 3.64658 9.00096 3.61765 9.14545C3.57226 9.37255 3.52576 9.59964 3.47993 9.82674C3.30772 10.6768 3.13552 11.5268 2.96331 12.3769C2.88344 12.771 2.80223 13.1648 2.7248 13.5596C2.6941 13.7157 2.7535 13.8406 2.88077 13.9312C3.00848 14.022 3.14731 14.0329 3.28481 13.9579C3.87997 13.6333 4.47379 13.306 5.06806 12.98C5.80695 12.5748 6.54606 12.1698 7.28517 11.7646C7.35614 11.7257 7.42934 11.7021 7.51255 11.7021C7.61312 11.7021 7.69366 11.7513 7.7762 11.7962C8.30751 12.0868 8.83837 12.3787 9.36945 12.6699C9.51785 12.7514 9.66625 12.8327 9.81488 12.9141V4.36574C9.80286 4.34837 9.79196 4.32989 9.78195 4.30963H9.78061Z" fill="#FBE08D"/>
<path d="M11.7269 13.9624C11.8608 14.0347 11.9972 14.0216 12.1203 13.9321C12.2435 13.8423 12.3067 13.7206 12.276 13.5656C12.1864 13.111 12.0942 12.657 12.0021 12.203C11.7963 11.1878 11.5905 10.1725 11.3841 9.15726C11.3518 8.99896 11.3876 8.86626 11.5118 8.75605C11.7222 8.56925 11.9287 8.378 12.1372 8.18876C12.2976 8.04315 12.4582 7.89776 12.6191 7.7526C12.909 7.49077 13.1993 7.22916 13.489 6.96711C13.6717 6.80191 13.853 6.63515 14.0357 6.46995C14.3185 6.21413 14.6033 5.96009 14.8845 5.7025C14.9608 5.63259 15.0028 5.54197 14.9997 5.42775C15.0004 5.40349 14.9982 5.37232 14.9893 5.34137C14.9405 5.17082 14.8099 5.07197 14.6164 5.05104C14.2466 5.01074 13.877 4.96777 13.5077 4.9248C13.1106 4.87872 12.7139 4.83085 12.3167 4.78476C11.9472 4.74179 11.5776 4.70082 11.2081 4.65808C10.8385 4.61533 10.4694 4.57035 10.0998 4.52827C9.97592 4.51425 9.8798 4.46215 9.81372 4.36597V12.9146C10.0211 13.0281 10.2282 13.1419 10.4354 13.2555C10.8657 13.4915 11.2953 13.7292 11.7271 13.9626L11.7269 13.9624Z" fill="#CDCDCD"/>
</svg>
