<svg width="15" height="14" viewBox="0 0 15 14" fill="none" xmlns="http://www.w3.org/2000/svg">
<path d="M0.122981 5.70935C-0.1161 5.49295 0.0137692 5.10175 0.337147 5.06422L4.91926 4.53228C5.05105 4.51699 5.16553 4.43598 5.22112 4.31803L7.15379 0.217092C7.29019 -0.072327 7.71057 -0.0723826 7.84696 0.217037L9.77963 4.31794C9.83522 4.4359 9.94896 4.51712 10.0808 4.53241L14.6631 5.06422C14.9865 5.10175 15.116 5.49307 14.8769 5.70947L11.4896 8.77594C11.3922 8.86413 11.3488 8.99541 11.3747 9.12282L12.2736 13.5524C12.3371 13.865 11.9972 14.1072 11.713 13.9515L7.68673 11.7451C7.57092 11.6816 7.43023 11.6819 7.31442 11.7454L3.2877 13.9509C3.00354 14.1066 2.663 13.865 2.72646 13.5523L3.62558 9.12309C3.65145 8.99568 3.60818 8.86411 3.51074 8.77591L0.122981 5.70935Z" fill="#CDCDCD"/>
</svg>
