<svg width="15" height="14" viewBox="0 0 15 14" fill="none" xmlns="http://www.w3.org/2000/svg">
<g clip-path="url(#clip0_4803_4739)">
<path d="M5.2191 4.31305C5.26315 4.22322 5.30565 4.13294 5.34836 4.04244C5.63448 3.43452 5.92037 2.82637 6.20671 2.21867C6.34799 1.91894 6.49038 1.61987 6.63188 1.32013C6.80498 0.953466 6.9754 0.585688 7.15094 0.220357C7.22036 0.0758253 7.34317 -0.00133238 7.50314 1.75547e-06C7.66311 0.00133589 7.78102 0.0818289 7.85222 0.225693C7.90161 0.325087 7.94789 0.426037 7.99506 0.526542C8.23779 1.04241 8.48007 1.5585 8.72303 2.07436C8.86342 2.37254 9.0047 2.67006 9.14553 2.96801C9.35912 3.41984 9.57159 3.87212 9.78629 4.3235C9.84213 4.4409 9.94047 4.50983 10.0671 4.52695C10.298 4.55808 10.5301 4.58165 10.7617 4.60834C11.0355 4.63991 11.3094 4.67149 11.5833 4.70328C11.883 4.73819 12.1825 4.77333 12.4822 4.80801C12.756 4.83981 13.0299 4.87139 13.3038 4.90274C13.5832 4.93476 13.8629 4.96544 14.1421 4.99813C14.3241 5.01925 14.5066 5.03815 14.6874 5.06639C14.9651 5.10997 15.0928 5.43506 14.9237 5.65786C14.8763 5.72056 14.8136 5.76748 14.7564 5.81951C14.5063 6.04787 14.2538 6.27334 14.0026 6.50059C13.8202 6.6658 13.6391 6.83235 13.4564 6.99756C13.2052 7.22458 12.9529 7.45072 12.7017 7.67752C12.526 7.83628 12.3511 7.99616 12.1756 8.15514C11.9493 8.36016 11.723 8.56539 11.4961 8.76929C11.3824 8.87135 11.3533 8.99832 11.3822 9.14263C11.4276 9.36943 11.4741 9.59623 11.5199 9.82304C11.6921 10.672 11.8643 11.521 12.0365 12.3699C12.1164 12.7635 12.1976 13.1568 12.275 13.5511C12.3057 13.7069 12.2463 13.8317 12.1191 13.9222C11.9913 14.0129 11.8525 14.0238 11.715 13.9489C11.1199 13.6247 10.5261 13.2978 9.9318 12.9723C9.19292 12.5676 8.45382 12.1631 7.71472 11.7584C7.64375 11.7195 7.57055 11.6959 7.48734 11.6959C7.38678 11.6959 7.30624 11.7451 7.2237 11.79C6.6924 12.0802 6.16155 12.3717 5.63048 12.6625C5.48208 12.7439 5.33368 12.8251 5.18506 12.9065V4.36908C5.19707 4.35174 5.20797 4.33328 5.21799 4.31305H5.2191Z" fill="#CDCDCD"/>
<path d="M3.27269 13.9533C3.13875 14.0256 3.00236 14.0125 2.87933 13.9231C2.75607 13.8335 2.69289 13.7118 2.72359 13.5571C2.81325 13.103 2.90536 12.6496 2.99747 12.1962C3.20327 11.1823 3.40907 10.1684 3.61554 9.15441C3.6478 8.99631 3.61198 8.86379 3.48783 8.75372C3.27736 8.56717 3.07089 8.37616 2.86242 8.18716C2.70201 8.04174 2.54137 7.89654 2.38052 7.75156C2.09062 7.49007 1.80027 7.2288 1.5106 6.96709C1.32794 6.8021 1.14661 6.63556 0.963949 6.47057C0.681169 6.21508 0.396387 5.96137 0.115165 5.70411C0.0388525 5.63429 -0.00319738 5.54379 -8.25803e-05 5.42972C-0.000750038 5.40548 0.00147482 5.37435 0.0103743 5.34344C0.0590987 5.17312 0.189698 5.07439 0.383261 5.05349C0.753032 5.01324 1.12258 4.97033 1.49191 4.92742C1.88905 4.88139 2.28574 4.83358 2.68288 4.78755C3.05242 4.74464 3.42197 4.70372 3.79152 4.66103C4.16107 4.61834 4.53018 4.57342 4.89972 4.5314C5.02365 4.51739 5.11976 4.46536 5.18584 4.3693V12.9069C4.97848 13.0203 4.77135 13.1339 4.56422 13.2473C4.13393 13.483 3.70431 13.7205 3.27246 13.9535L3.27269 13.9533Z" fill="#FBE08D"/>
</g>
<defs>
<clipPath id="clip0_4803_4739">
<rect width="15" height="14" fill="white"/>
</clipPath>
</defs>
</svg>
