<svg width="15" height="14" viewBox="0 0 15 14" fill="none" xmlns="http://www.w3.org/2000/svg">
<g clip-path="url(#clip0_4803_4781)">
<path d="M7.5 0C7.5 0 7.49799 0 7.49688 0C7.33691 0.00133427 7.219 0.0818349 7.1478 0.225713C7.09841 0.325116 7.05213 0.426075 7.00496 0.52659C6.76223 1.04251 6.51995 1.55864 6.27699 2.07456C6.1366 2.37277 5.99532 2.67031 5.85449 2.9683C5.6409 3.42017 5.42843 3.87248 5.21373 4.32391C5.15789 4.44132 5.05955 4.51026 4.93295 4.52738C4.70201 4.55852 4.46996 4.58209 4.23835 4.60877C3.96447 4.64035 3.69059 4.67193 3.41671 4.70373C3.11702 4.73864 2.81756 4.77378 2.51787 4.80847C2.24399 4.84027 1.97011 4.87185 1.69623 4.9032C1.41678 4.93522 1.13712 4.96591 0.8579 4.9986C0.675907 5.01973 0.493468 5.03863 0.312587 5.06687C0.034925 5.11046 -0.092782 5.43557 0.0763073 5.6584C0.123697 5.72111 0.186438 5.76803 0.243617 5.82007C0.493691 6.04845 0.746213 6.27394 0.997399 6.50121C1.17984 6.66643 1.36094 6.83299 1.5436 6.99822C1.79479 7.22527 2.04709 7.45143 2.29827 7.67825C2.47404 7.83703 2.64891 7.99692 2.82445 8.15592C3.05072 8.36095 3.27699 8.56621 3.50393 8.77013C3.61762 8.8722 3.64676 8.99917 3.61784 9.1435C3.57245 9.37032 3.52595 9.59715 3.48012 9.82397C3.30792 10.673 3.13571 11.522 2.96351 12.3711C2.88363 12.7647 2.80243 13.1581 2.725 13.5524C2.6943 13.7082 2.7537 13.833 2.88096 13.9235C3.00867 14.0142 3.1475 14.0251 3.285 13.9502C3.88015 13.626 4.47396 13.2991 5.06822 12.9735C5.8071 12.5688 6.5462 12.1643 7.2853 11.7595C7.35293 11.7226 7.42257 11.6995 7.50089 11.6975V0H7.5Z" fill="#FBE08D"/>
<path d="M7.49991 0C7.49991 0 7.50192 0 7.50303 0C7.663 0.00133427 7.78091 0.0818349 7.85211 0.225713C7.9015 0.325116 7.94778 0.426075 7.99494 0.52659C8.23768 1.04251 8.47996 1.55864 8.72292 2.07456C8.86331 2.37277 9.00459 2.67031 9.14542 2.9683C9.35901 3.42017 9.57148 3.87248 9.78618 4.32391C9.84202 4.44132 9.94036 4.51026 10.067 4.52738C10.2979 4.55852 10.5299 4.58209 10.7616 4.60877C11.0354 4.64035 11.3093 4.67193 11.5832 4.70373C11.8829 4.73864 12.1824 4.77378 12.482 4.80847C12.7559 4.84027 13.0298 4.87185 13.3037 4.9032C13.5831 4.93522 13.8628 4.96591 14.142 4.9986C14.324 5.01973 14.5064 5.03863 14.6873 5.06687C14.965 5.11046 15.0927 5.43557 14.9236 5.6584C14.8762 5.72111 14.8135 5.76803 14.7563 5.82007C14.5062 6.04845 14.2537 6.27394 14.0025 6.50121C13.8201 6.66643 13.639 6.83299 13.4563 6.99822C13.2051 7.22527 12.9528 7.45143 12.7016 7.67825C12.5259 7.83703 12.351 7.99692 12.1755 8.15592C11.9492 8.36095 11.7229 8.56621 11.496 8.77013C11.3823 8.8722 11.3531 8.99917 11.3821 9.1435C11.4275 9.37032 11.474 9.59715 11.5198 9.82397C11.692 10.673 11.8642 11.522 12.0364 12.3711C12.1163 12.7647 12.1975 13.1581 12.2749 13.5524C12.3056 13.7082 12.2462 13.833 12.1189 13.9235C11.9912 14.0142 11.8524 14.0251 11.7149 13.9502C11.1198 13.626 10.5259 13.2991 9.93168 12.9735C9.19281 12.5688 8.45371 12.1643 7.71461 11.7595C7.64698 11.7226 7.57734 11.6995 7.49902 11.6975V0H7.49991Z" fill="#CDCDCD"/>
</g>
<defs>
<clipPath id="clip0_4803_4781">
<rect width="15" height="14" fill="white"/>
</clipPath>
</defs>
</svg>
