<svg width="24" height="24" viewBox="0 0 24 24" fill="none" xmlns="http://www.w3.org/2000/svg">
<path d="M9.99902 16H4.99902V21M13.999 8H18.999V3M4.58203 9.0034C5.14272 7.61566 6.08146 6.41304 7.29157 5.53223C8.50169 4.65141 9.93588 4.12752 11.4288 4.02051C12.9217 3.9135 14.4138 4.2274 15.7371 4.92661C17.0605 5.62582 18.1603 6.68254 18.9131 7.97612M19.4166 14.9971C18.8559 16.3848 17.9171 17.5874 16.707 18.4682C15.4969 19.3491 14.0642 19.8723 12.5713 19.9793C11.0784 20.0863 9.58509 19.7725 8.26172 19.0732C6.93835 18.374 5.83785 17.3175 5.08496 16.0239" stroke="#0D99FF" stroke-width="2" stroke-linecap="round" stroke-linejoin="round"/>
</svg>
