<svg width="18" height="18" viewBox="0 0 18 18" fill="none" xmlns="http://www.w3.org/2000/svg">
<path d="M9 13.0219C8.85 13.0219 8.70938 12.9983 8.57812 12.951C8.44687 12.9045 8.325 12.825 8.2125 12.7125L4.1625 8.6625C3.95625 8.45625 3.85313 8.19375 3.85313 7.875C3.85313 7.55625 3.95625 7.29375 4.1625 7.0875C4.36875 6.88125 4.63575 6.77325 4.9635 6.7635C5.292 6.7545 5.55937 6.85312 5.76562 7.05937L7.875 9.16875V1.125C7.875 0.80625 7.983 0.538875 8.199 0.322875C8.41425 0.107625 8.68125 0 9 0C9.31875 0 9.58613 0.107625 9.80212 0.322875C10.0174 0.538875 10.125 0.80625 10.125 1.125V9.16875L12.2344 7.05937C12.4406 6.85312 12.708 6.7545 13.0365 6.7635C13.3643 6.77325 13.6312 6.88125 13.8375 7.0875C14.0437 7.29375 14.1469 7.55625 14.1469 7.875C14.1469 8.19375 14.0437 8.45625 13.8375 8.6625L9.7875 12.7125C9.675 12.825 9.55313 12.9045 9.42188 12.951C9.29062 12.9983 9.15 13.0219 9 13.0219ZM2.25 18C1.63125 18 1.10175 17.7799 0.6615 17.3396C0.2205 16.8986 0 16.3687 0 15.75V13.5C0 13.1812 0.107625 12.9139 0.322875 12.6979C0.538875 12.4826 0.80625 12.375 1.125 12.375C1.44375 12.375 1.71112 12.4826 1.92712 12.6979C2.14237 12.9139 2.25 13.1812 2.25 13.5V15.75H15.75V13.5C15.75 13.1812 15.858 12.9139 16.074 12.6979C16.2892 12.4826 16.5562 12.375 16.875 12.375C17.1938 12.375 17.4608 12.4826 17.676 12.6979C17.892 12.9139 18 13.1812 18 13.5V15.75C18 16.3687 17.7799 16.8986 17.3396 17.3396C16.8986 17.7799 16.3687 18 15.75 18H2.25Z" fill="#0D99FF"/>
</svg>
