<svg width="30" height="30" viewBox="0 0 30 30" fill="none" xmlns="http://www.w3.org/2000/svg">
<path d="M7.5 22.5L20 22.5M7.5 17.5L11.25 17.5M7.5 12.5L16.25 12.5M7.5 7.5L13.75 7.5M4.5 26.25L25.5 26.25C25.6989 26.25 25.8897 26.171 26.0303 26.0303C26.171 25.8897 26.25 25.6989 26.25 25.5L26.25 4.5C26.25 4.30109 26.171 4.11032 26.0303 3.96967C25.8897 3.82902 25.6989 3.75 25.5 3.75L4.5 3.75C4.30109 3.75 4.11032 3.82902 3.96967 3.96967C3.82902 4.11032 3.75 4.30109 3.75 4.5L3.75 25.5C3.75 25.6989 3.82902 25.8897 3.96967 26.0303C4.11032 26.171 4.30109 26.25 4.5 26.25Z" stroke="current" stroke-width="1.6" stroke-linecap="round" stroke-linejoin="round"/>
</svg>
